<?xml version="1.0" standalone="no"?><!DOCTYPE svg PUBLIC "-//W3C//DTD SVG 1.1//EN" "http://www.w3.org/Graphics/SVG/1.1/DTD/svg11.dtd"><svg t="1678865327618" class="icon" viewBox="0 0 1024 1024" version="1.1" xmlns="http://www.w3.org/2000/svg" p-id="12442" xmlns:xlink="http://www.w3.org/1999/xlink" width="200" height="200"><path d="M807.3216 889.5488H221.184c-78.7456 0-142.848-64.1024-142.848-142.848V286.976c0-78.7456 64.1024-142.848 142.848-142.848h178.8416c20.7872 0 40.7552 8.8064 54.784 24.1664l77.568 85.0944c2.4064 2.6112 5.8368 4.1472 9.3696 4.1472h265.5232c78.7456 0 142.848 64.1024 142.848 142.848v346.2656c0.0512 78.7968-64.0512 142.8992-142.7968 142.8992zM221.184 205.568c-44.9024 0-81.408 36.5056-81.408 81.408v459.6736c0 44.9024 36.5056 81.408 81.408 81.408h586.1376c44.9024 0 81.408-36.5056 81.408-81.408V400.4352c0-44.9024-36.5056-81.408-81.408-81.408h-265.5232c-20.7872 0-40.7552-8.8064-54.784-24.1664L409.3952 209.7152c-2.4064-2.6112-5.8368-4.1472-9.3696-4.1472H221.184z" fill="#6FB1F9" p-id="12443"></path><path d="M466.0224 453.8368H249.0368c-16.9472 0-30.72-13.7728-30.72-30.72s13.7728-30.72 30.72-30.72h216.9856c16.9472 0 30.72 13.7728 30.72 30.72s-13.7728 30.72-30.72 30.72z" fill="#6FB1F9" p-id="12444"></path></svg>