<?xml version="1.0" standalone="no"?><!DOCTYPE svg PUBLIC "-//W3C//DTD SVG 1.1//EN" "http://www.w3.org/Graphics/SVG/1.1/DTD/svg11.dtd"><svg t="1678865264336" class="icon" viewBox="0 0 1024 1024" version="1.1" xmlns="http://www.w3.org/2000/svg" p-id="6657" xmlns:xlink="http://www.w3.org/1999/xlink" width="200" height="200"><path d="M409.6 409.6h460.8c56.32 0 102.4 46.08 102.4 102.4v307.2c0 56.32-46.08 102.4-102.4 102.4H409.6c-56.32 0-102.4-46.08-102.4-102.4v-307.2c0-56.32 46.08-102.4 102.4-102.4z" fill="#5AC8FA" p-id="6658"></path><path d="M153.6 153.6c-30.72 0-51.2 25.6-51.2 51.2v614.4c0 30.72 20.48 51.2 51.2 51.2h716.8c30.72 0 51.2-20.48 51.2-51.2V307.2c0-30.72-25.6-51.2-51.2-51.2h-337.92c-25.6 0-51.2-10.24-71.68-30.72L404.48 168.96c-10.24-10.24-25.6-15.36-35.84-15.36H153.6z m0-51.2h215.04c25.6 0 51.2 10.24 71.68 30.72l56.32 56.32c10.24 10.24 20.48 15.36 35.84 15.36H870.4c56.32 0 102.4 46.08 102.4 102.4v512c0 56.32-46.08 102.4-102.4 102.4H153.6c-56.32 0-102.4-46.08-102.4-102.4V204.8c0-56.32 46.08-102.4 102.4-102.4z" fill="" p-id="6659"></path></svg>